<mxfile host="app.diagrams.net" modified="2023-05-29T18:07:04.239Z" agent="Mozilla/5.0 (Windows NT 10.0; Win64; x64) AppleWebKit/537.36 (KHTML, like Gecko) Chrome/113.0.0.0 Safari/537.36" etag="_estHw3USw-a-Xi_iGWB" version="21.3.5" type="device">
  <diagram name="Page-1" id="r1qaA5QdDHKESEshNv9O">
    <mxGraphModel dx="1050" dy="541" grid="1" gridSize="10" guides="1" tooltips="1" connect="1" arrows="1" fold="1" page="1" pageScale="1" pageWidth="850" pageHeight="1100" math="0" shadow="0">
      <root>
        <mxCell id="0" />
        <mxCell id="1" parent="0" />
        <mxCell id="-1FiRehdicVweAf9remo-5" value="" style="swimlane;whiteSpace=wrap;html=1;" parent="1" vertex="1">
          <mxGeometry x="100" y="70" width="740" height="1100" as="geometry" />
        </mxCell>
        <mxCell id="-1FiRehdicVweAf9remo-7" value="User" style="text;html=1;strokeColor=none;fillColor=none;align=center;verticalAlign=middle;whiteSpace=wrap;rounded=0;" parent="-1FiRehdicVweAf9remo-5" vertex="1">
          <mxGeometry x="80" width="60" height="30" as="geometry" />
        </mxCell>
        <mxCell id="-1FiRehdicVweAf9remo-8" value="System" style="text;html=1;strokeColor=none;fillColor=none;align=center;verticalAlign=middle;whiteSpace=wrap;rounded=0;" parent="-1FiRehdicVweAf9remo-5" vertex="1">
          <mxGeometry x="410" width="60" height="30" as="geometry" />
        </mxCell>
        <mxCell id="-1FiRehdicVweAf9remo-9" value="" style="rounded=1;whiteSpace=wrap;html=1;" parent="-1FiRehdicVweAf9remo-5" vertex="1">
          <mxGeometry x="130" y="50" width="100" height="40" as="geometry" />
        </mxCell>
        <mxCell id="-1FiRehdicVweAf9remo-10" value="" style="ellipse;whiteSpace=wrap;html=1;aspect=fixed;fillColor=#1ba1e2;fontColor=#ffffff;strokeColor=#006EAF;" parent="-1FiRehdicVweAf9remo-5" vertex="1">
          <mxGeometry x="10" y="55" width="30" height="30" as="geometry" />
        </mxCell>
        <mxCell id="-1FiRehdicVweAf9remo-11" value="" style="endArrow=classic;html=1;rounded=0;exitX=1;exitY=0.5;exitDx=0;exitDy=0;entryX=0;entryY=0.5;entryDx=0;entryDy=0;" parent="-1FiRehdicVweAf9remo-5" source="-1FiRehdicVweAf9remo-10" target="-1FiRehdicVweAf9remo-9" edge="1">
          <mxGeometry width="50" height="50" relative="1" as="geometry">
            <mxPoint x="300" y="240" as="sourcePoint" />
            <mxPoint x="350" y="190" as="targetPoint" />
          </mxGeometry>
        </mxCell>
        <mxCell id="-1FiRehdicVweAf9remo-12" value="Select Menu&amp;nbsp;" style="text;html=1;strokeColor=none;fillColor=none;align=center;verticalAlign=middle;whiteSpace=wrap;rounded=0;" parent="-1FiRehdicVweAf9remo-5" vertex="1">
          <mxGeometry x="150" y="55" width="60" height="30" as="geometry" />
        </mxCell>
        <mxCell id="-1FiRehdicVweAf9remo-13" value="" style="rounded=1;whiteSpace=wrap;html=1;" parent="-1FiRehdicVweAf9remo-5" vertex="1">
          <mxGeometry x="480" y="50" width="100" height="40" as="geometry" />
        </mxCell>
        <mxCell id="-1FiRehdicVweAf9remo-14" value="Display Several Option" style="text;html=1;strokeColor=none;fillColor=none;align=center;verticalAlign=middle;whiteSpace=wrap;rounded=0;" parent="-1FiRehdicVweAf9remo-5" vertex="1">
          <mxGeometry x="475" y="55" width="110" height="30" as="geometry" />
        </mxCell>
        <mxCell id="-1FiRehdicVweAf9remo-15" value="" style="endArrow=classic;html=1;rounded=0;exitX=1;exitY=0.5;exitDx=0;exitDy=0;entryX=0;entryY=0.5;entryDx=0;entryDy=0;" parent="-1FiRehdicVweAf9remo-5" source="-1FiRehdicVweAf9remo-9" target="-1FiRehdicVweAf9remo-13" edge="1">
          <mxGeometry width="50" height="50" relative="1" as="geometry">
            <mxPoint x="300" y="240" as="sourcePoint" />
            <mxPoint x="350" y="190" as="targetPoint" />
          </mxGeometry>
        </mxCell>
        <mxCell id="-1FiRehdicVweAf9remo-17" value="" style="rounded=1;whiteSpace=wrap;html=1;" parent="-1FiRehdicVweAf9remo-5" vertex="1">
          <mxGeometry x="125" y="145" width="115" height="40" as="geometry" />
        </mxCell>
        <mxCell id="-1FiRehdicVweAf9remo-18" value="Select &quot; Message&quot; Option" style="text;html=1;strokeColor=none;fillColor=none;align=center;verticalAlign=middle;whiteSpace=wrap;rounded=0;" parent="-1FiRehdicVweAf9remo-5" vertex="1">
          <mxGeometry x="130" y="150" width="100" height="30" as="geometry" />
        </mxCell>
        <mxCell id="-1FiRehdicVweAf9remo-23" value="" style="rounded=1;whiteSpace=wrap;html=1;" parent="-1FiRehdicVweAf9remo-5" vertex="1">
          <mxGeometry x="580" y="210" width="100" height="40" as="geometry" />
        </mxCell>
        <mxCell id="-1FiRehdicVweAf9remo-24" value="Display Several Massage Option" style="text;html=1;strokeColor=none;fillColor=none;align=center;verticalAlign=middle;whiteSpace=wrap;rounded=0;" parent="-1FiRehdicVweAf9remo-5" vertex="1">
          <mxGeometry x="570" y="215" width="120" height="30" as="geometry" />
        </mxCell>
        <mxCell id="-1FiRehdicVweAf9remo-46" value="" style="rounded=1;whiteSpace=wrap;html=1;" parent="-1FiRehdicVweAf9remo-5" vertex="1">
          <mxGeometry x="320" y="340" width="120" height="40" as="geometry" />
        </mxCell>
        <mxCell id="-1FiRehdicVweAf9remo-47" value="Request&amp;nbsp;recipientâ€™s number and message" style="text;html=1;strokeColor=none;fillColor=none;align=center;verticalAlign=middle;whiteSpace=wrap;rounded=0;" parent="-1FiRehdicVweAf9remo-5" vertex="1">
          <mxGeometry x="350" y="345" width="60" height="30" as="geometry" />
        </mxCell>
        <mxCell id="-1FiRehdicVweAf9remo-49" value="" style="rounded=1;whiteSpace=wrap;html=1;" parent="-1FiRehdicVweAf9remo-5" vertex="1">
          <mxGeometry x="80" y="390" width="100" height="40" as="geometry" />
        </mxCell>
        <mxCell id="-1FiRehdicVweAf9remo-50" value="Enter recipient&#39;s Number and message" style="text;html=1;strokeColor=none;fillColor=none;align=center;verticalAlign=middle;whiteSpace=wrap;rounded=0;" parent="-1FiRehdicVweAf9remo-5" vertex="1">
          <mxGeometry x="70" y="395" width="120" height="30" as="geometry" />
        </mxCell>
        <mxCell id="-1FiRehdicVweAf9remo-52" value="" style="rounded=1;whiteSpace=wrap;html=1;" parent="-1FiRehdicVweAf9remo-5" vertex="1">
          <mxGeometry x="320" y="390" width="120" height="40" as="geometry" />
        </mxCell>
        <mxCell id="-1FiRehdicVweAf9remo-53" value="Process&amp;nbsp;" style="text;html=1;strokeColor=none;fillColor=none;align=center;verticalAlign=middle;whiteSpace=wrap;rounded=0;" parent="-1FiRehdicVweAf9remo-5" vertex="1">
          <mxGeometry x="360" y="395" width="50" height="30" as="geometry" />
        </mxCell>
        <mxCell id="-1FiRehdicVweAf9remo-60" value="" style="rounded=1;whiteSpace=wrap;html=1;" parent="-1FiRehdicVweAf9remo-5" vertex="1">
          <mxGeometry x="530" y="490" width="120" height="40" as="geometry" />
        </mxCell>
        <mxCell id="-1FiRehdicVweAf9remo-62" value="Request response&amp;nbsp;" style="text;html=1;strokeColor=none;fillColor=none;align=center;verticalAlign=middle;whiteSpace=wrap;rounded=0;" parent="-1FiRehdicVweAf9remo-5" vertex="1">
          <mxGeometry x="565" y="495" width="50" height="30" as="geometry" />
        </mxCell>
        <mxCell id="-1FiRehdicVweAf9remo-67" value="" style="rounded=1;whiteSpace=wrap;html=1;" parent="-1FiRehdicVweAf9remo-5" vertex="1">
          <mxGeometry x="120" y="490" width="120" height="40" as="geometry" />
        </mxCell>
        <mxCell id="-1FiRehdicVweAf9remo-68" value="" style="endArrow=classic;html=1;rounded=0;exitX=0;exitY=0.5;exitDx=0;exitDy=0;entryX=1;entryY=0.5;entryDx=0;entryDy=0;" parent="-1FiRehdicVweAf9remo-5" source="-1FiRehdicVweAf9remo-60" target="-1FiRehdicVweAf9remo-67" edge="1">
          <mxGeometry width="50" height="50" relative="1" as="geometry">
            <mxPoint x="300" y="500" as="sourcePoint" />
            <mxPoint x="240" y="515" as="targetPoint" />
          </mxGeometry>
        </mxCell>
        <mxCell id="-1FiRehdicVweAf9remo-69" value="Select Option whether send or discard" style="text;html=1;strokeColor=none;fillColor=none;align=center;verticalAlign=middle;whiteSpace=wrap;rounded=0;" parent="-1FiRehdicVweAf9remo-5" vertex="1">
          <mxGeometry x="120" y="495" width="110" height="30" as="geometry" />
        </mxCell>
        <mxCell id="-1FiRehdicVweAf9remo-70" value="" style="rhombus;whiteSpace=wrap;html=1;" parent="-1FiRehdicVweAf9remo-5" vertex="1">
          <mxGeometry x="420" y="570" width="80" height="80" as="geometry" />
        </mxCell>
        <mxCell id="-1FiRehdicVweAf9remo-75" value="[Sent]" style="text;html=1;strokeColor=none;fillColor=none;align=center;verticalAlign=middle;whiteSpace=wrap;rounded=0;" parent="-1FiRehdicVweAf9remo-5" vertex="1">
          <mxGeometry x="390" y="660" width="60" height="30" as="geometry" />
        </mxCell>
        <mxCell id="-1FiRehdicVweAf9remo-76" value="No" style="text;html=1;strokeColor=none;fillColor=none;align=center;verticalAlign=middle;whiteSpace=wrap;rounded=0;" parent="-1FiRehdicVweAf9remo-5" vertex="1">
          <mxGeometry x="510" y="570" width="60" height="30" as="geometry" />
        </mxCell>
        <mxCell id="-1FiRehdicVweAf9remo-79" value="" style="endArrow=classic;html=1;rounded=0;" parent="-1FiRehdicVweAf9remo-5" edge="1">
          <mxGeometry width="50" height="50" relative="1" as="geometry">
            <mxPoint x="540" y="730" as="sourcePoint" />
            <mxPoint x="540" y="790" as="targetPoint" />
          </mxGeometry>
        </mxCell>
        <mxCell id="-1FiRehdicVweAf9remo-81" value="" style="rounded=1;whiteSpace=wrap;html=1;" parent="-1FiRehdicVweAf9remo-5" vertex="1">
          <mxGeometry x="310" y="790" width="120" height="40" as="geometry" />
        </mxCell>
        <mxCell id="-1FiRehdicVweAf9remo-82" value=" sent message to recipient" style="text;html=1;strokeColor=none;fillColor=none;align=center;verticalAlign=middle;whiteSpace=wrap;rounded=0;" parent="-1FiRehdicVweAf9remo-5" vertex="1">
          <mxGeometry x="320" y="795" width="90" height="30" as="geometry" />
        </mxCell>
        <mxCell id="-1FiRehdicVweAf9remo-83" value="" style="rounded=1;whiteSpace=wrap;html=1;" parent="-1FiRehdicVweAf9remo-5" vertex="1">
          <mxGeometry x="480" y="790" width="120" height="40" as="geometry" />
        </mxCell>
        <mxCell id="-1FiRehdicVweAf9remo-84" value=" copied message to sent items folder" style="text;html=1;strokeColor=none;fillColor=none;align=center;verticalAlign=middle;whiteSpace=wrap;rounded=0;" parent="-1FiRehdicVweAf9remo-5" vertex="1">
          <mxGeometry x="480" y="795" width="110" height="30" as="geometry" />
        </mxCell>
        <mxCell id="-1FiRehdicVweAf9remo-89" value="" style="rounded=1;whiteSpace=wrap;html=1;" parent="-1FiRehdicVweAf9remo-5" vertex="1">
          <mxGeometry x="440" y="950" width="120" height="40" as="geometry" />
        </mxCell>
        <mxCell id="-1FiRehdicVweAf9remo-90" value="  display the main screen" style="text;html=1;strokeColor=none;fillColor=none;align=center;verticalAlign=middle;whiteSpace=wrap;rounded=0;" parent="-1FiRehdicVweAf9remo-5" vertex="1">
          <mxGeometry x="455" y="955" width="90" height="30" as="geometry" />
        </mxCell>
        <mxCell id="-1FiRehdicVweAf9remo-92" value="" style="rounded=1;whiteSpace=wrap;html=1;" parent="-1FiRehdicVweAf9remo-5" vertex="1">
          <mxGeometry x="620" y="590" width="120" height="40" as="geometry" />
        </mxCell>
        <mxCell id="-1FiRehdicVweAf9remo-93" value="discard message" style="text;html=1;strokeColor=none;fillColor=none;align=center;verticalAlign=middle;whiteSpace=wrap;rounded=0;" parent="-1FiRehdicVweAf9remo-5" vertex="1">
          <mxGeometry x="650" y="595" width="50" height="30" as="geometry" />
        </mxCell>
        <mxCell id="-1FiRehdicVweAf9remo-95" value="" style="ellipse;whiteSpace=wrap;html=1;aspect=fixed;" parent="-1FiRehdicVweAf9remo-5" vertex="1">
          <mxGeometry x="480" y="1040" width="40" height="40" as="geometry" />
        </mxCell>
        <mxCell id="-1FiRehdicVweAf9remo-96" value="" style="ellipse;whiteSpace=wrap;html=1;aspect=fixed;fillColor=#1ba1e2;fontColor=#ffffff;strokeColor=#006EAF;" parent="-1FiRehdicVweAf9remo-5" vertex="1">
          <mxGeometry x="485" y="1045" width="30" height="30" as="geometry" />
        </mxCell>
        <mxCell id="-1FiRehdicVweAf9remo-97" value="" style="endArrow=classic;html=1;rounded=0;entryX=0.5;entryY=0;entryDx=0;entryDy=0;exitX=0.5;exitY=1;exitDx=0;exitDy=0;" parent="-1FiRehdicVweAf9remo-5" source="-1FiRehdicVweAf9remo-89" target="-1FiRehdicVweAf9remo-95" edge="1">
          <mxGeometry width="50" height="50" relative="1" as="geometry">
            <mxPoint x="300" y="1000" as="sourcePoint" />
            <mxPoint x="350" y="950" as="targetPoint" />
          </mxGeometry>
        </mxCell>
        <mxCell id="gSYM2UNPpqCG_skIQ3BB-10" value="" style="rounded=1;whiteSpace=wrap;html=1;" vertex="1" parent="-1FiRehdicVweAf9remo-5">
          <mxGeometry x="120" y="250" width="120" height="40" as="geometry" />
        </mxCell>
        <mxCell id="gSYM2UNPpqCG_skIQ3BB-12" value="Select &quot; New Message&quot; Option" style="text;html=1;strokeColor=none;fillColor=none;align=center;verticalAlign=middle;whiteSpace=wrap;rounded=0;" vertex="1" parent="-1FiRehdicVweAf9remo-5">
          <mxGeometry x="130" y="252.5" width="100" height="35" as="geometry" />
        </mxCell>
        <mxCell id="gSYM2UNPpqCG_skIQ3BB-15" value="" style="rounded=1;whiteSpace=wrap;html=1;" vertex="1" parent="-1FiRehdicVweAf9remo-5">
          <mxGeometry x="570" y="315" width="120" height="40" as="geometry" />
        </mxCell>
        <mxCell id="gSYM2UNPpqCG_skIQ3BB-16" value="Compose message screen" style="text;html=1;strokeColor=none;fillColor=none;align=center;verticalAlign=middle;whiteSpace=wrap;rounded=0;" vertex="1" parent="-1FiRehdicVweAf9remo-5">
          <mxGeometry x="580" y="320" width="100" height="30" as="geometry" />
        </mxCell>
        <mxCell id="-1FiRehdicVweAf9remo-6" value="" style="endArrow=none;html=1;rounded=0;entryX=0.374;entryY=0.001;entryDx=0;entryDy=0;entryPerimeter=0;" parent="1" target="-1FiRehdicVweAf9remo-5" edge="1">
          <mxGeometry width="50" height="50" relative="1" as="geometry">
            <mxPoint x="377" y="1170" as="sourcePoint" />
            <mxPoint x="470" y="100" as="targetPoint" />
            <Array as="points" />
          </mxGeometry>
        </mxCell>
        <mxCell id="-1FiRehdicVweAf9remo-54" value="" style="endArrow=classic;html=1;rounded=0;entryX=0;entryY=0.5;entryDx=0;entryDy=0;" parent="1" target="-1FiRehdicVweAf9remo-52" edge="1">
          <mxGeometry width="50" height="50" relative="1" as="geometry">
            <mxPoint x="280" y="480" as="sourcePoint" />
            <mxPoint x="450" y="320" as="targetPoint" />
          </mxGeometry>
        </mxCell>
        <mxCell id="-1FiRehdicVweAf9remo-58" value="" style="endArrow=none;html=1;rounded=0;exitX=1;exitY=0.5;exitDx=0;exitDy=0;" parent="1" source="-1FiRehdicVweAf9remo-52" edge="1">
          <mxGeometry width="50" height="50" relative="1" as="geometry">
            <mxPoint x="400" y="670" as="sourcePoint" />
            <mxPoint x="680" y="480" as="targetPoint" />
          </mxGeometry>
        </mxCell>
        <mxCell id="-1FiRehdicVweAf9remo-63" value="" style="endArrow=classic;html=1;rounded=0;entryX=0.413;entryY=-0.095;entryDx=0;entryDy=0;entryPerimeter=0;" parent="1" target="-1FiRehdicVweAf9remo-60" edge="1">
          <mxGeometry width="50" height="50" relative="1" as="geometry">
            <mxPoint x="680" y="480" as="sourcePoint" />
            <mxPoint x="680" y="550" as="targetPoint" />
          </mxGeometry>
        </mxCell>
        <mxCell id="-1FiRehdicVweAf9remo-71" value="" style="endArrow=none;html=1;rounded=0;entryX=0.5;entryY=1;entryDx=0;entryDy=0;" parent="1" target="-1FiRehdicVweAf9remo-67" edge="1">
          <mxGeometry width="50" height="50" relative="1" as="geometry">
            <mxPoint x="280" y="680" as="sourcePoint" />
            <mxPoint x="450" y="620" as="targetPoint" />
          </mxGeometry>
        </mxCell>
        <mxCell id="-1FiRehdicVweAf9remo-72" value="" style="endArrow=classic;html=1;rounded=0;entryX=0;entryY=0.5;entryDx=0;entryDy=0;" parent="1" target="-1FiRehdicVweAf9remo-70" edge="1">
          <mxGeometry width="50" height="50" relative="1" as="geometry">
            <mxPoint x="280" y="680" as="sourcePoint" />
            <mxPoint x="450" y="620" as="targetPoint" />
          </mxGeometry>
        </mxCell>
        <mxCell id="-1FiRehdicVweAf9remo-73" value="" style="endArrow=classic;html=1;rounded=0;exitX=0.5;exitY=1;exitDx=0;exitDy=0;" parent="1" source="-1FiRehdicVweAf9remo-70" edge="1">
          <mxGeometry width="50" height="50" relative="1" as="geometry">
            <mxPoint x="400" y="770" as="sourcePoint" />
            <mxPoint x="560" y="800" as="targetPoint" />
          </mxGeometry>
        </mxCell>
        <mxCell id="-1FiRehdicVweAf9remo-74" value="" style="endArrow=classic;html=1;rounded=0;exitX=1;exitY=0.5;exitDx=0;exitDy=0;" parent="1" source="-1FiRehdicVweAf9remo-70" edge="1">
          <mxGeometry width="50" height="50" relative="1" as="geometry">
            <mxPoint x="400" y="770" as="sourcePoint" />
            <mxPoint x="720" y="680" as="targetPoint" />
          </mxGeometry>
        </mxCell>
        <mxCell id="-1FiRehdicVweAf9remo-77" value="" style="endArrow=none;html=1;rounded=0;" parent="1" edge="1">
          <mxGeometry width="50" height="50" relative="1" as="geometry">
            <mxPoint x="440" y="800" as="sourcePoint" />
            <mxPoint x="680" y="800" as="targetPoint" />
          </mxGeometry>
        </mxCell>
        <mxCell id="-1FiRehdicVweAf9remo-78" value="" style="endArrow=classic;html=1;rounded=0;" parent="1" edge="1">
          <mxGeometry width="50" height="50" relative="1" as="geometry">
            <mxPoint x="470" y="800" as="sourcePoint" />
            <mxPoint x="470" y="860" as="targetPoint" />
          </mxGeometry>
        </mxCell>
        <mxCell id="-1FiRehdicVweAf9remo-85" value="" style="endArrow=classic;html=1;rounded=0;exitX=0.5;exitY=1;exitDx=0;exitDy=0;" parent="1" source="-1FiRehdicVweAf9remo-81" edge="1">
          <mxGeometry width="50" height="50" relative="1" as="geometry">
            <mxPoint x="400" y="970" as="sourcePoint" />
            <mxPoint x="470" y="960" as="targetPoint" />
          </mxGeometry>
        </mxCell>
        <mxCell id="-1FiRehdicVweAf9remo-86" value="" style="endArrow=classic;html=1;rounded=0;exitX=0.5;exitY=1;exitDx=0;exitDy=0;" parent="1" source="-1FiRehdicVweAf9remo-83" edge="1">
          <mxGeometry width="50" height="50" relative="1" as="geometry">
            <mxPoint x="400" y="970" as="sourcePoint" />
            <mxPoint x="640" y="960" as="targetPoint" />
          </mxGeometry>
        </mxCell>
        <mxCell id="-1FiRehdicVweAf9remo-87" value="" style="endArrow=none;html=1;rounded=0;" parent="1" edge="1">
          <mxGeometry width="50" height="50" relative="1" as="geometry">
            <mxPoint x="440" y="960" as="sourcePoint" />
            <mxPoint x="820" y="960" as="targetPoint" />
          </mxGeometry>
        </mxCell>
        <mxCell id="-1FiRehdicVweAf9remo-88" value="" style="endArrow=classic;html=1;rounded=0;" parent="1" edge="1">
          <mxGeometry width="50" height="50" relative="1" as="geometry">
            <mxPoint x="600" y="960" as="sourcePoint" />
            <mxPoint x="600" y="1020" as="targetPoint" />
          </mxGeometry>
        </mxCell>
        <mxCell id="-1FiRehdicVweAf9remo-94" value="" style="endArrow=classic;html=1;rounded=0;exitX=0.443;exitY=1.085;exitDx=0;exitDy=0;exitPerimeter=0;" parent="1" source="-1FiRehdicVweAf9remo-92" edge="1">
          <mxGeometry width="50" height="50" relative="1" as="geometry">
            <mxPoint x="400" y="870" as="sourcePoint" />
            <mxPoint x="773" y="960" as="targetPoint" />
          </mxGeometry>
        </mxCell>
        <mxCell id="gSYM2UNPpqCG_skIQ3BB-2" value="" style="endArrow=none;html=1;rounded=0;entryX=0.6;entryY=1;entryDx=0;entryDy=0;entryPerimeter=0;" edge="1" parent="1" target="-1FiRehdicVweAf9remo-13">
          <mxGeometry width="50" height="50" relative="1" as="geometry">
            <mxPoint x="640" y="240" as="sourcePoint" />
            <mxPoint x="470" y="270" as="targetPoint" />
          </mxGeometry>
        </mxCell>
        <mxCell id="gSYM2UNPpqCG_skIQ3BB-3" value="" style="endArrow=classic;html=1;rounded=0;" edge="1" parent="1">
          <mxGeometry width="50" height="50" relative="1" as="geometry">
            <mxPoint x="640" y="240" as="sourcePoint" />
            <mxPoint x="340" y="240" as="targetPoint" />
          </mxGeometry>
        </mxCell>
        <mxCell id="gSYM2UNPpqCG_skIQ3BB-4" value="" style="endArrow=none;html=1;rounded=0;entryX=0.5;entryY=1;entryDx=0;entryDy=0;" edge="1" parent="1" target="-1FiRehdicVweAf9remo-18">
          <mxGeometry width="50" height="50" relative="1" as="geometry">
            <mxPoint x="280" y="300" as="sourcePoint" />
            <mxPoint x="280" y="260" as="targetPoint" />
          </mxGeometry>
        </mxCell>
        <mxCell id="gSYM2UNPpqCG_skIQ3BB-5" value="" style="endArrow=classic;html=1;rounded=0;" edge="1" parent="1">
          <mxGeometry width="50" height="50" relative="1" as="geometry">
            <mxPoint x="280" y="300" as="sourcePoint" />
            <mxPoint x="680" y="300" as="targetPoint" />
          </mxGeometry>
        </mxCell>
        <mxCell id="gSYM2UNPpqCG_skIQ3BB-13" value="" style="endArrow=none;html=1;rounded=0;entryX=0.372;entryY=1.085;entryDx=0;entryDy=0;entryPerimeter=0;" edge="1" parent="1" target="-1FiRehdicVweAf9remo-23">
          <mxGeometry width="50" height="50" relative="1" as="geometry">
            <mxPoint x="717" y="340" as="sourcePoint" />
            <mxPoint x="470" y="370" as="targetPoint" />
          </mxGeometry>
        </mxCell>
        <mxCell id="gSYM2UNPpqCG_skIQ3BB-14" value="" style="endArrow=classic;html=1;rounded=0;entryX=1;entryY=0.5;entryDx=0;entryDy=0;" edge="1" parent="1" target="gSYM2UNPpqCG_skIQ3BB-10">
          <mxGeometry width="50" height="50" relative="1" as="geometry">
            <mxPoint x="720" y="340" as="sourcePoint" />
            <mxPoint x="470" y="370" as="targetPoint" />
          </mxGeometry>
        </mxCell>
        <mxCell id="gSYM2UNPpqCG_skIQ3BB-18" value="" style="endArrow=none;html=1;rounded=0;entryX=0.5;entryY=1;entryDx=0;entryDy=0;" edge="1" parent="1" target="gSYM2UNPpqCG_skIQ3BB-10">
          <mxGeometry width="50" height="50" relative="1" as="geometry">
            <mxPoint x="280" y="400" as="sourcePoint" />
            <mxPoint x="470" y="430" as="targetPoint" />
          </mxGeometry>
        </mxCell>
        <mxCell id="gSYM2UNPpqCG_skIQ3BB-19" value="" style="endArrow=classic;html=1;rounded=0;entryX=0;entryY=0.375;entryDx=0;entryDy=0;entryPerimeter=0;" edge="1" parent="1" target="gSYM2UNPpqCG_skIQ3BB-15">
          <mxGeometry width="50" height="50" relative="1" as="geometry">
            <mxPoint x="280" y="400" as="sourcePoint" />
            <mxPoint x="660" y="400" as="targetPoint" />
          </mxGeometry>
        </mxCell>
        <mxCell id="gSYM2UNPpqCG_skIQ3BB-20" value="" style="endArrow=none;html=1;rounded=0;entryX=0.407;entryY=1;entryDx=0;entryDy=0;entryPerimeter=0;" edge="1" parent="1" target="gSYM2UNPpqCG_skIQ3BB-15">
          <mxGeometry width="50" height="50" relative="1" as="geometry">
            <mxPoint x="719" y="440" as="sourcePoint" />
            <mxPoint x="470" y="330" as="targetPoint" />
          </mxGeometry>
        </mxCell>
        <mxCell id="gSYM2UNPpqCG_skIQ3BB-21" value="" style="endArrow=classic;html=1;rounded=0;entryX=1;entryY=0.75;entryDx=0;entryDy=0;" edge="1" parent="1" target="-1FiRehdicVweAf9remo-46">
          <mxGeometry width="50" height="50" relative="1" as="geometry">
            <mxPoint x="720" y="440" as="sourcePoint" />
            <mxPoint x="470" y="330" as="targetPoint" />
          </mxGeometry>
        </mxCell>
        <mxCell id="gSYM2UNPpqCG_skIQ3BB-23" value="" style="endArrow=none;html=1;rounded=0;exitX=0;exitY=0.75;exitDx=0;exitDy=0;" edge="1" parent="1" source="-1FiRehdicVweAf9remo-46">
          <mxGeometry width="50" height="50" relative="1" as="geometry">
            <mxPoint x="420" y="380" as="sourcePoint" />
            <mxPoint x="240" y="440" as="targetPoint" />
          </mxGeometry>
        </mxCell>
        <mxCell id="gSYM2UNPpqCG_skIQ3BB-24" value="" style="endArrow=classic;html=1;rounded=0;entryX=0.596;entryY=-0.095;entryDx=0;entryDy=0;entryPerimeter=0;" edge="1" parent="1" target="-1FiRehdicVweAf9remo-49">
          <mxGeometry width="50" height="50" relative="1" as="geometry">
            <mxPoint x="240" y="440" as="sourcePoint" />
            <mxPoint x="470" y="330" as="targetPoint" />
          </mxGeometry>
        </mxCell>
      </root>
    </mxGraphModel>
  </diagram>
</mxfile>
